<svg viewBox="0 0 32 32" fill="none" xmlns="http://www.w3.org/2000/svg">
<path d="M16.0062 8.81251C12.0312 8.81251 8.82499 12.0188 8.82499 15.9938C8.82499 19.9688 12.0312 23.175 16.0062 23.175C19.9812 23.175 23.1875 19.9688 23.1875 15.9938C23.1875 12.0188 19.9812 8.81251 16.0062 8.81251ZM16.0062 20.6625C13.4375 20.6625 11.3375 18.5688 11.3375 15.9938C11.3375 13.4188 13.4312 11.325 16.0062 11.325C18.5812 11.325 20.675 13.4188 20.675 15.9938C20.675 18.5688 18.575 20.6625 16.0062 20.6625ZM25.1562 8.51876C25.1562 9.45001 24.4062 10.1938 23.4812 10.1938C22.55 10.1938 21.8062 9.44376 21.8062 8.51876C21.8062 7.59376 22.5562 6.84376 23.4812 6.84376C24.4062 6.84376 25.1562 7.59376 25.1562 8.51876ZM29.9125 10.2188C29.8062 7.97501 29.2937 5.98751 27.65 4.35001C26.0125 2.71251 24.025 2.20001 21.7812 2.08751C19.4687 1.95626 12.5375 1.95626 10.225 2.08751C7.98749 2.19376 5.99999 2.70626 4.35624 4.34376C2.71249 5.98126 2.20624 7.96876 2.09374 10.2125C1.96249 12.525 1.96249 19.4563 2.09374 21.7688C2.19999 24.0125 2.71249 26 4.35624 27.6375C5.99999 29.275 7.98124 29.7875 10.225 29.9C12.5375 30.0313 19.4687 30.0313 21.7812 29.9C24.025 29.7938 26.0125 29.2813 27.65 27.6375C29.2875 26 29.8 24.0125 29.9125 21.7688C30.0437 19.4563 30.0437 12.5313 29.9125 10.2188ZM26.925 24.25C26.4375 25.475 25.4937 26.4188 24.2625 26.9125C22.4187 27.6438 18.0437 27.475 16.0062 27.475C13.9687 27.475 9.58749 27.6375 7.74999 26.9125C6.52499 26.425 5.58124 25.4813 5.08749 24.25C4.35624 22.4063 4.52499 18.0313 4.52499 15.9938C4.52499 13.9563 4.36249 9.57501 5.08749 7.73751C5.57499 6.51251 6.51874 5.56876 7.74999 5.07501C9.59374 4.34376 13.9687 4.51251 16.0062 4.51251C18.0437 4.51251 22.425 4.35001 24.2625 5.07501C25.4875 5.56251 26.4312 6.50626 26.925 7.73751C27.6562 9.58126 27.4875 13.9563 27.4875 15.9938C27.4875 18.0313 27.6562 22.4125 26.925 24.25Z" fill="#D2D2D2"/>
</svg>
