<svg viewBox="0 0 32 32" fill="none" xmlns="http://www.w3.org/2000/svg">
<path d="M30.2778 8.31667C30.4833 7.62223 30.2778 7.11111 29.2889 7.11111H26.0167C25.1833 7.11111 24.8 7.55 24.5944 8.03889C24.5944 8.03889 22.9278 12.1 20.5722 14.7333C19.8111 15.4944 19.4611 15.7389 19.0444 15.7389C18.8389 15.7389 18.5222 15.4944 18.5222 14.8V8.31667C18.5222 7.48334 18.2889 7.11111 17.6 7.11111H12.4555C11.9333 7.11111 11.6222 7.5 11.6222 7.86111C11.6222 8.65 12.8 8.83334 12.9222 11.0556V15.8778C12.9222 16.9333 12.7333 17.1278 12.3167 17.1278C11.2055 17.1278 8.50555 13.05 6.90555 8.38334C6.58332 7.47778 6.26666 7.11111 5.42777 7.11111H2.15555C1.22221 7.11111 1.03333 7.55 1.03333 8.03889C1.03333 8.90556 2.14444 13.2111 6.20555 18.9C8.9111 22.7833 12.7222 24.8889 16.1889 24.8889C18.2722 24.8889 18.5278 24.4222 18.5278 23.6167C18.5278 19.9056 18.3389 19.5556 19.3833 19.5556C19.8667 19.5556 20.7 19.8 22.6444 21.6722C24.8667 23.8944 25.2333 24.8889 26.4778 24.8889H29.75C30.6833 24.8889 31.1555 24.4222 30.8833 23.5C30.2611 21.5611 26.0555 17.5722 25.8667 17.3056C25.3833 16.6833 25.5222 16.4056 25.8667 15.85C25.8722 15.8444 29.8667 10.2222 30.2778 8.31667Z" />
</svg>
